{"title":"Self/Less(2015)MPEG-4[DaScubaDude]","uid":14573124,"size":1164926742,"categoryP":"video","categoryS":"movies","magnet":"?xt=urn:btih:5ceb5c5fdfe8da1fba2531906e949a6f8497f3c2&amp;dn=Self%2FLess%282015%29MPEG-4%5BDaScubaDude%5D&amp;tr=udp%3A%2F%2Ftracker.leechers-paradise.org%3A6969&amp;tr=udp%3A%2F%2Fzer0day.ch%3A1337&amp;tr=udp%3A%2F%2Fopen.demonii.com%3A1337&amp;tr=udp%3A%2F%2Ftracker.coppersurfer.tk%3A6969&amp;tr=udp%3A%2F%2Fexodus.desync.com%3A6969","seeders":0,"leechers":1,"uploader":"dascuba","files":1,"time":1462824450,"description":"Self/less (2015)\r\nPG-13 | 1h 57min | Action, Mystery, Sci-Fi | 10 July 2015 (USA)\r\nA dying real estate mogul transfers his consciousness into a healthy young body, but soon finds that neither the procedure nor the company that performed it are quite what they seem.\r\nDirector: Tarsem Singh\r\nWriters: David Pastor (screenplay), Àlex Pastor (screenplay)\r\nStars: Ryan Reynolds, Natalie Martinez, Matthew Goode |\r\n\r\nGeneral\r\nComplete name                            : SelflessSELF_LESS_Title19.mp4\r\nFormat                                   : MPEG-4\r\nFormat profile                           : Base Media\r\nCodec ID                                 : isom (isom/iso2/avc1/mp41)\r\nFile size                                : 1.08 GiB\r\nDuration                                 : 1h 56mn\r\nOverall bit rate                         : 1 330 Kbps\r\nMovie name                               : SELF_LESS\r\nGenre                                    : Thriller\r\nWriting application                      : Lavf54.6.100\r\n\r\nVideo\r\nID                                       : 1\r\nFormat                                   : AVC\r\nFormat/Info                              : Advanced Video Codec\r\nFormat profile                           :   \r\nFormat settings, CABAC                   : No\r\nFormat settings, ReFrames                : 6 frames\r\nCodec ID                                 : avc1\r\nCodec ID/Info                            : Advanced Video Coding\r\nDuration                                 : 1h 56mn\r\nBit rate                                 : 1 195 Kbps\r\nWidth                                    : 720 pixels\r\nHeight                                   : 404 pixels\r\nDisplay aspect ratio                     : 16:9\r\nFrame rate mode                          : Constant\r\nFrame rate                               : 29.970 (30000/1001) fps\r\nColor space                              : YUV\r\nChroma subsampling                       : 4:2:0\r\nBit depth                                : 8 bits\r\nScan type                                : Progressive\r\nBits/(Pixel*Frame)                       : 0.137\r\nStream size                              : 998 MiB (90%)\r\n\r\nAudio\r\nID                                       : 2\r\nFormat                                   : AAC\r\nFormat/Info                              : Advanced Audio Codec\r\nFormat profile                           : LC\r\nCodec ID                                 : 40\r\nDuration                                 : 1h 56mn\r\nBit rate mode                            : Constant\r\nBit rate                                 : 128 Kbps\r\nChannel(s)                               : 2 channels\r\nChannel positions                        : Front: L R\r\nSampling rate                            : 44.1 KHz\r\nFrame rate                               : 43.066 fps (1024 spf)\r\nCompression mode                         : Lossy\r\nStream size                              : 107 MiB (10%)\r\nDefault                                  : Yes\r\nAlternate group                          : 1","torrent":{"xt":"urn:btih:5ceb5c5fdfe8da1fba2531906e949a6f8497f3c2","amp;dn":"Self%2FLess%282015%29MPEG-4%5BDaScubaDude%5D","amp;tr":["udp%3A%2F%2Ftracker.leechers-paradise.org%3A6969","udp%3A%2F%2Fzer0day.ch%3A1337","udp%3A%2F%2Fopen.demonii.com%3A1337","udp%3A%2F%2Ftracker.coppersurfer.tk%3A6969","udp%3A%2F%2Fexodus.desync.com%3A6969"],"infoHash":"5ceb5c5fdfe8da1fba2531906e949a6f8497f3c2","infoHashBuffer":{"type":"Buffer","data":[92,235,92,95,223,232,218,31,186,37,49,144,110,148,154,111,132,151,243,194]},"announce":[],"urlList":[]}}